<svg xmlns="http://www.w3.org/2000/svg" viewBox="0 0 161.34 71.89"><defs><style>.cls-1{fill:#f1f2f2;}.cls-2{fill:#00a696;}</style></defs><g id="Layer_2" data-name="Layer 2"><g id="Home"><path class="cls-1" d="M147.65,71.89c4.27,0,6.81-11.78,7.63-25.8a8.17,8.17,0,0,0,6.06-7.87V32.16a8.16,8.16,0,0,0-6.17-7.9C154.27,10.93,151.77,0,147.65,0H7.92c-10.56,0-10.56,71.89,0,71.89H147.65ZM8.63,68.5c-7,0-7-65.19,0-65.19H146c7.31,0,7.33,65.19,0,65.19Z"/><path class="cls-2" d="M92.38,6.85H12.05c-6.68,0-6.68,58.2,0,58.2H92.38C98.32,65.05,98.31,6.85,92.38,6.85Z"/></g></g></svg>