<svg xmlns="http://www.w3.org/2000/svg" viewBox="0 0 41 28.91"><defs><style>.cls-1{fill:none;stroke:#16a595;stroke-miterlimit:10;}</style></defs><g id="Layer_2" data-name="Layer 2"><g id="Home_Dual" data-name="Home Dual"><path class="cls-1" d="M39.85.53,30.79,3.9a.48.48,0,0,0-.14.82l2,1.64A.49.49,0,0,1,32.7,7l-5.87,7.08a.48.48,0,0,1-.67.07L21.71,10.5a.48.48,0,0,0-.68.07l-7.22,8.72a.48.48,0,0,1-.67.06L9.4,16.25a.48.48,0,0,0-.67.07L.61,26.12a.48.48,0,0,0,.06.67L2.5,28.3a.48.48,0,0,0,.68-.06l6-7.23A.47.47,0,0,1,9.84,21L13.58,24a.48.48,0,0,0,.67-.06l7.23-8.72a.47.47,0,0,1,.67-.07l4.45,3.69a.47.47,0,0,0,.67-.07l8-9.65a.48.48,0,0,1,.67-.06l2.15,1.78a.48.48,0,0,0,.78-.28l1.62-9.54a.48.48,0,0,0-.64-.53"/></g></g></svg>