<svg xmlns="http://www.w3.org/2000/svg" viewBox="0 0 128.93 211.8"><defs><style>.cls-1{fill:#f1f2f2;}.cls-2{fill:#00a696;}</style></defs><g id="Layer_2" data-name="Layer 2"><g id="Loading"><g id="Alternate_Logomark" data-name="Alternate Logomark"><path class="cls-1" d="M78.77,140.8,50.49,114.16a2.85,2.85,0,0,0-4.61,1l-40,96.6L39.62,77.1a3,3,0,0,1,4.91-1.34L68.65,99.87A2.61,2.61,0,0,0,73,99L117.32,0,83.08,139.46a2.62,2.62,0,0,1-4.31,1.34"/><path class="cls-2" d="M19.38,149A64.41,64.41,0,0,1,57.93,38.85a62.76,62.76,0,0,1,35.42,6.69.66.66,0,0,1,.3,1.05l-4,8c-.15.45-.59.45-1,.3A57.62,57.62,0,0,0,20,145.56Zm12.36,6.1a46.62,46.62,0,0,0,5.35,3c25.6,12.35,57,3.87,72.79-19.65,15.62-23.37,12.65-52.84-5.66-71.89a.65.65,0,0,1-.15-.74l2.53-10.12a.88.88,0,0,1,1.34-.45,63.27,63.27,0,0,1,21,47.63c0,35-28.73,64.15-63.71,64.44a65.12,65.12,0,0,1-34.53-9.52Z"/></g></g></g></svg>