<svg xmlns="http://www.w3.org/2000/svg" viewBox="0 0 20.94 40"><defs><style>.cls-1,.cls-2{fill:none;stroke-miterlimit:10;}.cls-1{stroke:#00a595;}.cls-2{stroke:#16a595;}</style></defs><g id="Layer_2" data-name="Layer 2"><g id="Home_Dual" data-name="Home Dual"><path class="cls-1" d="M16.93.5H4A3.51,3.51,0,0,0,.5,4V36A3.51,3.51,0,0,0,4,39.5H16.93A3.51,3.51,0,0,0,20.44,36V4A3.51,3.51,0,0,0,16.93.5Z"/><path class="cls-2" d="M12.8,19.75a2.42,2.42,0,1,1-2.41-2.43,2.42,2.42,0,0,1,2.41,2.43"/><path class="cls-2" d="M10.38,27.1a7.36,7.36,0,0,1,0-14.71,7.36,7.36,0,0,1,0,14.71m0-12.42a5.07,5.07,0,0,0,0,10.13,5.07,5.07,0,0,0,0-10.13"/></g></g></svg>