<svg xmlns="http://www.w3.org/2000/svg" viewBox="0 0 25.25 30.36"><defs><style>.cls-1{fill:none;stroke:#00a695;stroke-miterlimit:10;}</style></defs><g id="Layer_2" data-name="Layer 2"><g id="Login"><path class="cls-1" d="M24.13,12H22.52c0-.24,0-.47,0-.72C22.55,1.89,16.34.5,12.64.5S2.73,1.89,2.73,11.23c0,.25,0,.48,0,.72H1.11a.6.6,0,0,0-.61.59V29.28a.59.59,0,0,0,.61.58h23a.6.6,0,0,0,.62-.58V12.54A.6.6,0,0,0,24.13,12ZM14.3,21.6v3.8a.52.52,0,0,1-.53.5H11.58a.51.51,0,0,1-.52-.5V21.66a2.92,2.92,0,0,1-1.53-3.35,3.07,3.07,0,0,1,2.32-2.19,3.14,3.14,0,0,1,3.94,2.93A3,3,0,0,1,14.3,21.6ZM24.13,12H1.52c0-.23,5.45.2,5.45,0C7,6,9.85,4.54,12.64,4.54S18.26,6,18.26,11.91C18.26,12.15,24.14,11.72,24.13,12Z"/></g></g></svg>