<svg xmlns="http://www.w3.org/2000/svg" xmlns:xlink="http://www.w3.org/1999/xlink" viewBox="0 0 67.93 28.2"><defs><style>.cls-1{fill:url(#linear-gradient);}.cls-2{fill:url(#linear-gradient-2);}.cls-3{fill:url(#linear-gradient-3);}.cls-4{fill:url(#linear-gradient-4);}.cls-5{fill:url(#linear-gradient-5);}.cls-6{fill:url(#linear-gradient-6);}.cls-7{fill:url(#linear-gradient-7);}.cls-8{fill:url(#linear-gradient-8);}.cls-9{fill:url(#linear-gradient-9);}.cls-10{fill:url(#linear-gradient-10);}.cls-11{fill:url(#linear-gradient-11);}.cls-12{fill:url(#linear-gradient-12);}.cls-13{fill:url(#linear-gradient-13);}.cls-14{fill:url(#linear-gradient-14);}.cls-15{fill:url(#linear-gradient-15);}.cls-16{fill:url(#linear-gradient-16);}.cls-17{fill:url(#linear-gradient-17);}.cls-18{fill:url(#linear-gradient-18);}.cls-19{fill:url(#linear-gradient-19);}.cls-20{fill:url(#linear-gradient-20);}.cls-21{fill:url(#linear-gradient-21);}.cls-22{fill:url(#linear-gradient-22);}</style><linearGradient id="linear-gradient" x1="24.65" y1="0.43" x2="24.65" y2="28.93" gradientUnits="userSpaceOnUse"><stop offset="0.16" stop-color="#00a696"/><stop offset="0.39" stop-color="#009687"/><stop offset="0.83" stop-color="#006b60"/><stop offset="0.92" stop-color="#006258"/></linearGradient><linearGradient id="linear-gradient-2" x1="1.47" y1="0.43" x2="1.47" y2="28.93" xlink:href="#linear-gradient"/><linearGradient id="linear-gradient-3" x1="9.89" y1="0.43" x2="9.89" y2="28.93" xlink:href="#linear-gradient"/><linearGradient id="linear-gradient-4" x1="12.9" y1="0.43" x2="12.9" y2="28.93" xlink:href="#linear-gradient"/><linearGradient id="linear-gradient-5" x1="22.47" y1="0.43" x2="22.47" y2="28.93" xlink:href="#linear-gradient"/><linearGradient id="linear-gradient-6" x1="32.11" y1="0.43" x2="32.11" y2="28.93" xlink:href="#linear-gradient"/><linearGradient id="linear-gradient-7" x1="55.33" y1="0.43" x2="55.33" y2="28.93" xlink:href="#linear-gradient"/><linearGradient id="linear-gradient-8" x1="59.34" y1="0.43" x2="59.34" y2="28.93" xlink:href="#linear-gradient"/><linearGradient id="linear-gradient-9" x1="10.17" y1="0.43" x2="10.17" y2="28.93" xlink:href="#linear-gradient"/><linearGradient id="linear-gradient-10" x1="47.91" y1="0.43" x2="47.91" y2="28.93" xlink:href="#linear-gradient"/><linearGradient id="linear-gradient-11" x1="46.92" y1="0.43" x2="46.92" y2="28.93" xlink:href="#linear-gradient"/><linearGradient id="linear-gradient-12" x1="67.01" y1="0.43" x2="67.01" y2="28.93" xlink:href="#linear-gradient"/><linearGradient id="linear-gradient-13" x1="66.44" y1="0.43" x2="66.44" y2="28.93" xlink:href="#linear-gradient"/><linearGradient id="linear-gradient-14" x1="33.09" y1="0.43" x2="33.09" y2="28.93" xlink:href="#linear-gradient"/><linearGradient id="linear-gradient-15" x1="61.37" y1="0.43" x2="61.37" y2="28.93" xlink:href="#linear-gradient"/><linearGradient id="linear-gradient-16" x1="0.68" y1="0.43" x2="0.68" y2="28.93" xlink:href="#linear-gradient"/><linearGradient id="linear-gradient-17" x1="36.37" y1="0.43" x2="36.37" y2="28.93" xlink:href="#linear-gradient"/><linearGradient id="linear-gradient-18" x1="64.04" y1="0.43" x2="64.04" y2="28.93" xlink:href="#linear-gradient"/><linearGradient id="linear-gradient-19" x1="50.81" y1="0.43" x2="50.81" y2="28.93" xlink:href="#linear-gradient"/><linearGradient id="linear-gradient-20" x1="53.18" y1="0.43" x2="53.18" y2="28.93" xlink:href="#linear-gradient"/><linearGradient id="linear-gradient-21" x1="59.04" y1="0.43" x2="59.04" y2="28.93" xlink:href="#linear-gradient"/><linearGradient id="linear-gradient-22" x1="17.72" y1="0.43" x2="17.72" y2="28.93" xlink:href="#linear-gradient"/></defs><g id="Layer_2" data-name="Layer 2"><g id="Charge_History_Month" data-name="Charge History Month"><path class="cls-1" d="M31.06,10.4a.24.24,0,0,1,.2.41,24.22,24.22,0,0,1-3.87,3.26,29.83,29.83,0,0,1-5.47.53A25.38,25.38,0,0,1,18,13.19.09.09,0,0,1,18,13l1.5-.95a.6.6,0,0,1,.21-.08Z"/><path class="cls-2" d="M2.56,12l0-.57A11.45,11.45,0,0,0,.35,14.07a12.6,12.6,0,0,1,1.74-1.39C2.31,12.68,2.56,12,2.56,12Z"/><path class="cls-3" d="M19.48,16.56a.43.43,0,0,0,.1-.78,19,19,0,0,0-3.81-1.88c-2.5-.7-13.19-.61-13.43-.57C1.47,13.47,0,15.21,0,15.21L2.18,20s0,.44.67.52,9.44.87,10,.89,1.11-.95,1.41-1.52,4.63-3.18,5.2-3.34Z"/><path class="cls-4" d="M24.64,24.81a.39.39,0,0,0,.16-.74,20.39,20.39,0,0,0-4.29-1.58c-1.36-.13-8.72-.53-10.17-.65-1.27-.11-7.57-.83-9.12-1a.4.4,0,0,0-.43.34,1.34,1.34,0,0,0,.42,1.26c.71.52,16.89,2.4,20.35,2.4Z"/><path class="cls-5" d="M26.47,22.87a.34.34,0,0,0,.42-.47,19.65,19.65,0,0,0-1.4-2.68A2.09,2.09,0,0,0,24,19.21c-.77,0-4.08.28-4.58.32a.27.27,0,0,0-.12,0,2.51,2.51,0,0,0-.88.67,5.8,5.8,0,0,0-.34.52.35.35,0,0,0,.3.52c1,0,3,0,3.48.05A46.73,46.73,0,0,1,26.47,22.87Z"/><path class="cls-6" d="M45,.11a.37.37,0,0,1,.25.6l-3.9,4.88a2.89,2.89,0,0,1-2.65.73c-1.91-.21-17.07-.08-19.42.31S28,1.24,28,1.24,33.19.35,37.05.11A70.27,70.27,0,0,1,45,.11Z"/><path class="cls-7" d="M52.05,1.3a19.67,19.67,0,0,1,1.74,4.79.41.41,0,0,0,.42.34c.86,0,3-.06,4.06-.18a.42.42,0,0,0,.35-.55c-.3-1-1.08-3.12-2.07-3.79A13.26,13.26,0,0,0,52.5.7.42.42,0,0,0,52.05,1.3Z"/><path class="cls-8" d="M59.27,5.82a.23.23,0,0,0,.26.15c.5-.11,1.7-.41,1.73-.9s-3.85-2.86-3.85-2.86S59,5,59.27,5.82Z"/><path class="cls-9" d="M6.92,23.75s.59,1.18,3,1.38a5.48,5.48,0,0,0,3.47-.55Z"/><path class="cls-10" d="M42.94,6.42l2.41-3.7A4.88,4.88,0,0,1,48.18.51,10.11,10.11,0,0,1,50.59.45c.84.6,2.45,6.11,2.32,6.12l-3.36.09.39-.29s.41-.41-.58-1.23a6.37,6.37,0,0,0-3.15-.89,2.18,2.18,0,0,0-.58.08c-.23.07-.65.82-.76,1.2a1.74,1.74,0,0,0,.18,1.17.56.56,0,0,0,.05.08l-1.93,0A.27.27,0,0,1,42.94,6.42Z"/><path class="cls-11" d="M48.52,7.13c-.56,0-1.75,0-1.75,0a10.46,10.46,0,0,1-1.06,1.28,2.08,2.08,0,0,1-.89,0,4,4,0,0,1-.53-.78A5.07,5.07,0,0,1,45.61,7a.57.57,0,0,1-.51-.26l4.45-.12A2.39,2.39,0,0,1,48.52,7.13Z"/><path class="cls-12" d="M67.69,16a3.09,3.09,0,0,1,.23,1.29c-.08.57-1.82,1.42-1.82,1.42v-.25S67,17.41,67.33,17A4,4,0,0,0,67.69,16Z"/><path class="cls-13" d="M67.15,8.33l.12.79-.23.5S66.45,8,66.33,7.76s-.72-.59-.72-.59l.91.36A1.06,1.06,0,0,1,67.15,8.33Z"/><path class="cls-14" d="M31.06,25A31.6,31.6,0,0,1,31.12,21c.3-2.18,1.59-5.69,2.58-6.55s3-.62,3-.62c-2.61-.09-4.83,3.05-5,7S33.3,28,36.16,28a17.05,17.05,0,0,1-4.92,0c-.52-.16-1.73-2.29-1.76-2.59C29.48,25.4,30.94,25.31,31.06,25Z"/><path class="cls-15" d="M60.84,19.93s.15-1.7.41-3.23a12.43,12.43,0,0,1,1-3.41,3.35,3.35,0,0,1,.59-.88l1,0c-1.22,0-2.21,2.3-2.21,5.14s1,5.14,2.21,5.14a13,13,0,0,1-3.22-.13A2.76,2.76,0,0,1,59,20.17Z"/><path class="cls-16" d="M.09,17.92s1.26.89,1.16,1.93L.4,19.74Z"/><path class="cls-17" d="M34,21c0,2.41,1,4.36,2.35,4.36s2.36-1.95,2.36-4.36-1.06-4.36-2.36-4.36S34,18.55,34,21Zm1.22,0c0-1.15.51-2.34,1.13-2.34S37.82,19.8,37.82,21s-.82,2.29-1.45,2.29S35.24,22.11,35.24,21Z"/><path class="cls-18" d="M62.77,17.62c0,1.77.57,3.21,1.27,3.21s1.26-1.44,1.26-3.21S64.73,14.4,64,14.4,62.77,15.84,62.77,17.62Zm.72,0c0-.78.24-1.66.55-1.66s.86.88.86,1.66-.56,1.72-.86,1.72S63.49,18.39,63.49,17.62Z"/><path class="cls-19" d="M41.23,22.62a5,5,0,0,0,.23-1.52l18.92-2.53-.1.81Z"/><polygon class="cls-20" points="53.64 8.89 54.01 9.06 52.36 9.17 52.61 8.84 53.64 8.89"/><polygon class="cls-21" points="59.35 8.38 59.59 8.51 58.48 8.6 58.65 8.33 59.35 8.38"/><path class="cls-22" d="M16.36,6.82c-1.13-1.19.58-1.66.58-1.66H18.7l.76.34-1,.67Z"/></g></g></svg>