<svg xmlns="http://www.w3.org/2000/svg" xmlns:xlink="http://www.w3.org/1999/xlink" viewBox="0 0 31.73 34.77"><defs><style>.cls-1{fill:url(#linear-gradient);}.cls-2{fill:url(#linear-gradient-2);}.cls-3{fill:url(#linear-gradient-3);}.cls-4{fill:url(#linear-gradient-4);}.cls-5{fill:url(#linear-gradient-5);}.cls-6{fill:url(#linear-gradient-6);}.cls-7{fill:url(#linear-gradient-7);}.cls-8{fill:url(#linear-gradient-8);}.cls-9{fill:url(#linear-gradient-9);}</style><linearGradient id="linear-gradient" x1="24.86" y1="33.6" x2="22.99" y2="-1.86" gradientUnits="userSpaceOnUse"><stop offset="0" stop-color="gray"/><stop offset="1" stop-color="#f1f2f2"/></linearGradient><linearGradient id="linear-gradient-2" x1="18.85" y1="33.92" x2="16.98" y2="-1.54" xlink:href="#linear-gradient"/><linearGradient id="linear-gradient-3" x1="25.6" y1="33.56" x2="23.73" y2="-1.9" xlink:href="#linear-gradient"/><linearGradient id="linear-gradient-4" x1="31.64" y1="33.24" x2="29.77" y2="-2.22" xlink:href="#linear-gradient"/><linearGradient id="linear-gradient-5" x1="32.11" y1="33.22" x2="30.24" y2="-2.24" xlink:href="#linear-gradient"/><linearGradient id="linear-gradient-6" x1="18.12" y1="33.95" x2="16.26" y2="-1.51" xlink:href="#linear-gradient"/><linearGradient id="linear-gradient-7" x1="27.51" y1="33.46" x2="25.65" y2="-2" xlink:href="#linear-gradient"/><linearGradient id="linear-gradient-8" x1="7.46" y1="34.52" x2="5.6" y2="-0.95" xlink:href="#linear-gradient"/><linearGradient id="linear-gradient-9" x1="24.82" y1="33.6" x2="22.95" y2="-1.86" xlink:href="#linear-gradient"/></defs><g id="Layer_2" data-name="Layer 2"><g id="Charge_History_Month" data-name="Charge History Month"><path class="cls-1" d="M23.9,5.75c-4.33,0-7.83,4.31-7.83,9.62S19.57,25,23.9,25s7.83-4.31,7.83-9.62S28.22,5.75,23.9,5.75Zm.61,18.11c-3.78,0-6.84-3.85-6.84-8.61s3.06-8.62,6.84-8.62,6.83,3.86,6.83,8.62S28.28,23.86,24.51,23.86Z"/><path class="cls-2" d="M18.71,4.35,16,4.12a.78.78,0,0,0-.8.75.76.76,0,0,0,.72.81l2.69.23a.79.79,0,0,0,.8-.75A.76.76,0,0,0,18.71,4.35Z"/><path class="cls-3" d="M26.18,3.92l-4.4-.44a.2.2,0,0,1-.18-.2l-.08-1.93a.21.21,0,0,1,.23-.19l4.4.44a.21.21,0,0,1,.19.2l.08,1.93A.21.21,0,0,1,26.18,3.92Z"/><path class="cls-4" d="M30.55,2.76,30,2.69a.19.19,0,0,0-.1,0,1,1,0,0,0-.42.87.83.83,0,0,0,.64.87,4,4,0,0,0,.67-.25Z"/><ellipse class="cls-5" cx="30.55" cy="3.51" rx="0.56" ry="0.75"/><path class="cls-6" d="M20.61,27l-5.09.39a.64.64,0,0,0-.61.58l-.36,5.24a.65.65,0,0,0,.75.65l5.13-.59a.65.65,0,0,0,.58-.58l.32-5A.64.64,0,0,0,20.61,27Zm-.13,5.36a.53.53,0,0,1-.48.49l-4.25.52a.55.55,0,0,1-.62-.57l.3-4.51a.53.53,0,0,1,.5-.49l4.23-.34a.55.55,0,0,1,.59.57Z"/><path class="cls-7" d="M31,26.2l-7.22.66a.64.64,0,0,0-.6.58l-.25,4.81a.65.65,0,0,0,.77.65l7.19-1.08a.62.62,0,0,0,.55-.57l.29-4.4A.64.64,0,0,0,31,26.2Zm-.1,4.69a.55.55,0,0,1-.48.47l-6.25.93a.55.55,0,0,1-.65-.53l.21-3.92a.57.57,0,0,1,.5-.52l6.29-.6a.57.57,0,0,1,.62.58Z"/><path class="cls-8" d="M12,0,0,2.62.21,31.88l11.51,2.86a.82.82,0,0,0,1-.7c.25-3.21.35-13.68.4-17.7S12.89,3.2,12.79.57A.62.62,0,0,0,12,0ZM9.89,26.76,2,25.47c-.39,0-.71-.46-.71-1a.91.91,0,0,1,.7-1L9.83,24.5c.39,0,.7.47.71,1S10.28,26.76,9.89,26.76ZM1.27,17.41a.92.92,0,0,1,.71-1l7.86.24c.39,0,.71.47.71,1s-.26,1.22-.65,1.22L2,18.45C1.59,18.45,1.28,18,1.27,17.41Zm8.67,5.32L2.08,22c-.39,0-.7-.46-.7-1a.91.91,0,0,1,.7-1l7.8.59c.39,0,.71.46.71,1S10.33,22.72,9.94,22.73Zm.05-11-7.83.34c-.39,0-.71-.46-.71-1a.91.91,0,0,1,.7-1l7.78-.52c.39,0,.7.47.71,1S10.38,11.73,10,11.73Zm0-4-7.9.78c-.39,0-.71-.46-.71-1a.92.92,0,0,1,.71-1l7.84-1c.39,0,.71.47.71,1S10.39,7.74,10,7.74Z"/><path class="cls-9" d="M23.86,9.47c-2.57,0-4.65,2.7-4.65,6s2.08,6,4.65,6,4.66-2.7,4.66-6S26.44,9.47,23.86,9.47Zm-3.51,5.25c.68-5.27,4.58-4.05,4.58-4.05l-4.49,6.57A6.85,6.85,0,0,1,20.35,14.72ZM21.43,19a1.56,1.56,0,0,1-.49-.81l4.92-7.14a1.42,1.42,0,0,1,.66.42Z"/></g></g></svg>