<svg width="24" height="24" xmlns="http://www.w3.org/2000/svg">
 <title/>
 <desc/>

 <g>
  <title>background</title>
  <rect fill="none" id="canvas_background" height="402" width="582" y="-1" x="-1"/>
 </g>
 <g>
  <title>Layer 1</title>
  <path id="circle-help-question-mark-outline-stroke" fill="#00a696" d="m1,11.5c0,-6.35128 5.14873,-11.5 11.5,-11.5c6.35127,0 11.5,5.14872 11.5,11.5c0,6.35127 -5.14873,11.5 -11.5,11.5c-6.35127,0 -11.5,-5.14873 -11.5,-11.5zm22,0c0,-5.79899 -4.70101,-10.5 -10.5,-10.5c-5.79899,0 -10.5,4.70101 -10.5,10.5c0,5.79899 4.70101,10.5 10.5,10.5c5.79899,0 10.5,-4.70101 10.5,-10.5zm-11.33173,3.875l1.45752,0l0,1.52344l-1.45752,0l0,-1.52344zm-1.5747,-8.41187c0.5957,-0.64209 1.41357,-0.96313 2.45361,-0.96313c0.96192,0 1.73218,0.27465 2.31079,0.82398c0.57862,0.54931 0.86792,1.25121 0.86792,2.10571c0,0.51758 -0.1062,0.9375 -0.3186,1.25976c-0.21241,0.32227 -0.64087,0.7959 -1.2854,1.4209c-0.46875,0.45411 -0.77271,0.83862 -0.91187,1.15357c-0.13916,0.31494 -0.20874,0.78002 -0.20874,1.39526l-1.30371,0c0,-0.69825 0.08301,-1.26099 0.24902,-1.68823c0.16602,-0.42725 0.52979,-0.91675 1.09131,-1.46851l0.58594,-0.57861c0.17578,-0.16602 0.31738,-0.33936 0.4248,-0.52002c0.19532,-0.31739 0.29297,-0.64697 0.29297,-0.98877c0,-0.47852 -0.14282,-0.89355 -0.42846,-1.24512c-0.28565,-0.35156 -0.75806,-0.52734 -1.41724,-0.52734c-0.81543,0 -1.37939,0.30273 -1.69189,0.9082c-0.17579,0.33692 -0.27588,0.82275 -0.3003,1.45752l-1.30371,0c0,-1.05469 0.29785,-1.90307 0.89356,-2.54517c0,0 -0.59571,0.6421 0,0z"/>
 </g>
</svg>