<svg xmlns="http://www.w3.org/2000/svg" viewBox="0 0 41 39.95"><defs><style>.cls-1{fill:none;stroke:#00a595;stroke-miterlimit:10;}</style></defs><g id="Layer_2" data-name="Layer 2"><g id="Home_Dual" data-name="Home Dual"><path class="cls-1" d="M40.45,26.87a1.09,1.09,0,0,1-.68,1.36l-1.1.38a1.06,1.06,0,0,0-.73.95,7.61,7.61,0,0,1-.43,2.15,1.06,1.06,0,0,0,.31,1.15l.88.77a1.09,1.09,0,0,1,.1,1.52l-1.38,1.57a1.06,1.06,0,0,1-1.51.09L35,36a1.06,1.06,0,0,0-1.18-.14,7.76,7.76,0,0,1-2.07.69,1.09,1.09,0,0,0-.86.85l-.23,1.15a1.06,1.06,0,0,1-1.26.84l-2-.41a1.08,1.08,0,0,1-.85-1.26l.23-1.14a1.05,1.05,0,0,0-.46-1.1,7,7,0,0,1-.88-.67,6.22,6.22,0,0,1-.76-.78,1.08,1.08,0,0,0-1.16-.31l-1.11.37A1.07,1.07,0,0,1,21,33.46l-.67-2A1.06,1.06,0,0,1,21,30.13l1.11-.38a1.07,1.07,0,0,0,.72-1,7.46,7.46,0,0,1,.42-2.14,1.06,1.06,0,0,0-.3-1.16l-.88-.77A1.09,1.09,0,0,1,22,23.2l1.38-1.56a1.08,1.08,0,0,1,1.52-.1l.87.77a1.06,1.06,0,0,0,1.19.15,7.78,7.78,0,0,1,2.07-.7,1.08,1.08,0,0,0,.85-.84l.23-1.15a1.08,1.08,0,0,1,1.26-.85l2.05.41a1.09,1.09,0,0,1,.84,1.27L34,21.74a1.08,1.08,0,0,0,.46,1.11,6.12,6.12,0,0,1,.88.66,7,7,0,0,1,.77.77,1.07,1.07,0,0,0,1.15.32l1.11-.37a1.07,1.07,0,0,1,1.36.66Zm-7.26,4.29a3.42,3.42,0,1,0-5.29.35,3.43,3.43,0,0,0,5.29-.35"/><path class="cls-1" d="M26.22,14.08a1.4,1.4,0,0,1,1,1.7l-.67,2.65a1.41,1.41,0,0,1-1.71,1l-1.48-.37a1.42,1.42,0,0,0-1.48.53,9.67,9.67,0,0,1-2,2.06,1.38,1.38,0,0,0-.49,1.49l.42,1.47a1.42,1.42,0,0,1-1,1.74l-2.63.75a1.42,1.42,0,0,1-1.74-1l-.41-1.47a1.38,1.38,0,0,0-1.2-1,10.51,10.51,0,0,1-2.78-.7,1.39,1.39,0,0,0-1.54.32L7.53,24.4a1.41,1.41,0,0,1-2,0l-2-1.9a1.41,1.41,0,0,1,0-2l1.06-1.1a1.38,1.38,0,0,0,.27-1.54,9.18,9.18,0,0,1-.49-1.36,11.5,11.5,0,0,1-.3-1.39,1.39,1.39,0,0,0-1-1.17L1.57,13.6a1.4,1.4,0,0,1-1-1.7l.67-2.65a1.39,1.39,0,0,1,1.7-1l1.48.37a1.43,1.43,0,0,0,1.49-.54A9.91,9.91,0,0,1,7.86,6a1.39,1.39,0,0,0,.49-1.49L7.93,3a1.4,1.4,0,0,1,1-1.73L11.53.55a1.42,1.42,0,0,1,1.74,1L13.68,3a1.4,1.4,0,0,0,1.2,1,10.13,10.13,0,0,1,2.78.7,1.4,1.4,0,0,0,1.54-.32l1.06-1.11a1.42,1.42,0,0,1,2,0l2,1.9a1.44,1.44,0,0,1,0,2L23.18,8.23a1.41,1.41,0,0,0-.28,1.55,7.79,7.79,0,0,1,.5,1.35,11.5,11.5,0,0,1,.3,1.39,1.38,1.38,0,0,0,1,1.18ZM15.55,18a4.48,4.48,0,1,0-6.08-3.38A4.48,4.48,0,0,0,15.55,18"/></g></g></svg>