<svg xmlns="http://www.w3.org/2000/svg" viewBox="0 0 25.41 29.75"><defs><style>.cls-1{fill:none;stroke:#00a695;stroke-miterlimit:10;}</style></defs><g id="Layer_2" data-name="Layer 2"><g id="Login"><path class="cls-1" d="M5.78,16.89a11.94,11.94,0,0,0-3.31,3.44A12.54,12.54,0,0,0,.76,24.77h0A15.43,15.43,0,0,0,.5,27.6a1.54,1.54,0,0,0,1.38,1.65H23.52a1.54,1.54,0,0,0,1.39-1.65,15.24,15.24,0,0,0-.27-2.82h0a12.84,12.84,0,0,0-3.59-7.07,19.75,19.75,0,0,0-2.75-2,.32.32,0,0,0-.38.1,6.72,6.72,0,0,1-5.29,2c-2,0-3.79-.35-5.12-1.85A.32.32,0,0,0,7.12,16Z"/><path class="cls-1" d="M12.62,16a7,7,0,0,0,5.23-2.38,8,8,0,0,0,2-5.38A7.52,7.52,0,0,0,12.62.5,7.53,7.53,0,0,0,5.34,8.25a8,8,0,0,0,2.08,5.42A7,7,0,0,0,12.62,16"/></g></g></svg>